<?xml version="1.0" encoding="UTF-8" standalone="no"?>
<!DOCTYPE svg PUBLIC "-//W3C//DTD SVG 1.1//EN" "http://www.w3.org/Graphics/SVG/1.1/DTD/svg11.dtd">
<svg xmlns="http://www.w3.org/2000/svg" xmlns:xlink="http://www.w3.org/1999/xlink" version="1.1" width="432pt" height="216pt" viewBox="0 0 432 216">
<g enable-background="new">
<g id="Layer-1" data-name="Layer 1">
<path transform="matrix(1,0,0,-1,376.5,168.8418)" d="M 0 0 L -321 0 L -321 99.938 L -293.812 99.938 L -293.812 93.938 L -315 93.938 L -315 6 L -6 6 L -6 93.938 L -28.875 93.938 L -28.875 99.938 L 0 99.938 Z " fill="#231f20"/>
<path transform="matrix(1,0,0,-1,105.8696,56.5186)" d="M 0 0 L -12.54 0 L -12.54 3.84 L 16.859 3.84 L 16.859 0 L 4.32 0 L 4.32 -36.958 L 0 -36.958 Z " fill="#231f20"/>
<clipPath id="cp0">
<path transform="matrix(1,0,0,-1,0,216)" d="M 0 216 L 432 216 L 432 0 L 0 0 Z "/>
</clipPath>
<g clip-path="url(#cp0)">
<path transform="matrix(1,0,0,-1,129.6904,50.158708)" d="M 0 0 L 4.2 0 L 4.2 -23.339 C 5.76 -20.039 9 -17.939 13.02 -17.939 C 18.539 -17.939 22.319 -21.719 22.319 -28.199 L 22.319 -43.318 L 18.119 -43.318 L 18.119 -28.679 C 18.119 -24.299 16.079 -21.779 11.939 -21.779 C 7.32 -21.779 4.2 -24.719 4.2 -29.639 L 4.2 -43.318 L 0 -43.318 Z " fill="#231f20"/>
<path transform="matrix(1,0,0,-1,181.0493,79.2578)" d="M 0 0 C -.36 4.26 -3.06 7.62 -8.28 7.62 C -13.02 7.62 -16.199 4.56 -16.859 0 Z M -7.68 -11.159 C -3.96 -11.159 -1.44 -9.66 .18 -7.859 L 2.76 -10.379 C .48 -12.959 -2.82 -14.699 -7.68 -14.699 C -15.839 -14.699 -21.119 -9.06 -21.119 -1.8 C -21.119 5.46 -15.54 11.16 -8.28 11.16 C -.3 11.16 4.5 5.04 4.2 -3.18 L -16.919 -3.18 C -16.379 -7.919 -13.14 -11.159 -7.68 -11.159 " fill="#231f20"/>
<path transform="matrix(1,0,0,-1,208.4888,52.678697)" d="M 0 0 L 4.319 0 L 4.319 -22.979 L 26.159 -22.979 L 26.159 0 L 30.479 0 L 30.479 -40.798 L 26.159 -40.798 L 26.159 -26.939 L 4.319 -26.939 L 4.319 -40.798 L 0 -40.798 Z " fill="#231f20"/>
<path transform="matrix(1,0,0,-1,256.5479,91.377)" d="M 0 0 L -10.56 22.739 L -5.939 22.739 L 1.08 7.319 C 1.74 5.76 2.22 3.12 2.22 3.12 C 2.22 3.12 2.64 5.76 3.359 7.319 L 9.84 22.739 L 14.159 22.739 L -2.04 -14.82 L -6.359 -14.82 Z " fill="#231f20"/>
<path transform="matrix(1,0,0,-1,298.9072,80.997608)" d="M 0 0 C 0 5.34 -3.36 9.18 -8.58 9.18 C -13.86 9.18 -17.399 5.34 -17.399 0 C -17.399 -5.4 -13.86 -9.3 -8.58 -9.3 C -3.36 -9.3 0 -5.4 0 0 M -21.359 12.359 L -17.22 12.359 L -17.34 7.02 C -15.6 10.439 -12.36 12.899 -7.68 12.899 C -.9 12.899 4.319 7.38 4.319 0 C 4.319 -7.439 -.96 -12.959 -7.74 -12.959 C -12.18 -12.959 -15.6 -10.56 -17.22 -7.32 L -17.22 -25.199 L -21.359 -25.199 Z " fill="#231f20"/>
<path transform="matrix(1,0,0,-1,330.9463,79.2578)" d="M 0 0 C -.36 4.26 -3.06 7.62 -8.279 7.62 C -13.02 7.62 -16.199 4.56 -16.859 0 Z M -7.68 -11.159 C -3.96 -11.159 -1.44 -9.66 .18 -7.859 L 2.76 -10.379 C .479 -12.959 -2.82 -14.699 -7.68 -14.699 C -15.839 -14.699 -21.119 -9.06 -21.119 -1.8 C -21.119 5.46 -15.539 11.16 -8.279 11.16 C -.3 11.16 4.5 5.04 4.2 -3.18 L -16.919 -3.18 C -16.379 -7.919 -13.14 -11.159 -7.68 -11.159 " fill="#231f20"/>
<path transform="matrix(1,0,0,-1,83.9194,110.1875)" d="M 0 0 L .6 0 L 19.56 -23.699 L 38.398 0 L 39.059 0 L 39.059 -41.278 L 34.859 -41.278 L 34.859 -14.339 C 34.859 -12.479 35.039 -9.659 35.039 -9.659 C 35.039 -9.659 33.479 -12.299 32.159 -13.919 L 19.799 -29.519 L 19.08 -29.519 L 6.9 -13.919 C 5.58 -12.299 3.96 -9.659 3.96 -9.659 C 3.96 -9.659 4.2 -12.479 4.2 -14.339 L 4.2 -41.278 L 0 -41.278 Z " fill="#231f20"/>
<path transform="matrix(1,0,0,-1,153.6987,139.0459)" d="M 0 0 C 0 5.34 -3.54 9.3 -8.82 9.3 C -14.159 9.3 -17.759 5.34 -17.759 0 C -17.759 -5.34 -14.159 -9.3 -8.82 -9.3 C -3.54 -9.3 0 -5.34 0 0 M -22.019 0 C -22.019 7.26 -16.259 12.959 -8.82 12.959 C -1.44 12.959 4.26 7.26 4.26 0 C 4.26 -7.26 -1.44 -12.899 -8.82 -12.899 C -16.259 -12.899 -22.019 -7.26 -22.019 0 " fill="#231f20"/>
<path transform="matrix(1,0,0,-1,162.2793,126.627)" d="M 0 0 L 4.62 0 L 11.22 -14.339 C 12 -16.019 12.6 -18.599 12.6 -18.599 C 12.6 -18.599 13.14 -16.019 13.919 -14.339 L 20.399 0 L 24.719 0 L 12.839 -25.318 L 12.06 -25.318 Z " fill="#231f20"/>
<path transform="matrix(1,0,0,-1,212.4375,137.2461)" d="M 0 0 C -.359 4.26 -3.06 7.619 -8.279 7.619 C -13.019 7.619 -16.199 4.56 -16.858 0 Z M -7.68 -11.159 C -3.959 -11.159 -1.439 -9.66 .181 -7.859 L 2.761 -10.38 C .48 -12.96 -2.819 -14.699 -7.68 -14.699 C -15.839 -14.699 -21.119 -9.06 -21.119 -1.8 C -21.119 5.46 -15.539 11.159 -8.279 11.159 C -.3 11.159 4.5 5.04 4.2 -3.18 L -16.919 -3.18 C -16.379 -7.92 -13.139 -11.159 -7.68 -11.159 " fill="#231f20"/>
<path transform="matrix(1,0,0,-1,224.6777,126.627)" d="M 0 0 L 4.2 0 L 4.08 -4.68 C 5.7 -1.319 8.4 .54 11.88 .54 C 15.779 .54 18.3 -1.56 19.38 -4.68 C 21.239 -1.319 24.359 .54 27.959 .54 C 33.419 .54 36.779 -3.06 36.779 -8.939 L 36.779 -24.839 L 32.639 -24.839 L 32.639 -9.479 C 32.639 -5.52 31.079 -3.3 27.18 -3.3 C 23.22 -3.3 20.52 -5.999 20.52 -10.919 L 20.52 -24.839 L 16.319 -24.839 L 16.319 -9.479 C 16.319 -5.52 14.76 -3.3 10.92 -3.3 C 6.96 -3.3 4.2 -5.999 4.2 -10.919 L 4.2 -24.839 L 0 -24.839 Z " fill="#231f20"/>
<path transform="matrix(1,0,0,-1,290.4971,137.2461)" d="M 0 0 C -.36 4.26 -3.06 7.619 -8.279 7.619 C -13.02 7.619 -16.199 4.56 -16.859 0 Z M -7.68 -11.159 C -3.96 -11.159 -1.44 -9.66 .18 -7.859 L 2.76 -10.38 C .479 -12.96 -2.82 -14.699 -7.68 -14.699 C -15.839 -14.699 -21.119 -9.06 -21.119 -1.8 C -21.119 5.46 -15.539 11.159 -8.279 11.159 C -.3 11.159 4.5 5.04 4.2 -3.18 L -16.919 -3.18 C -16.379 -7.92 -13.14 -11.159 -7.68 -11.159 " fill="#231f20"/>
<path transform="matrix(1,0,0,-1,302.7363,126.627)" d="M 0 0 L 4.2 0 L 4.08 -5.1 C 5.7 -1.56 9 .54 13.02 .54 C 18.54 .54 22.319 -3.239 22.319 -9.72 L 22.319 -24.839 L 18.119 -24.839 L 18.119 -10.199 C 18.119 -5.819 16.08 -3.3 11.939 -3.3 C 7.32 -3.3 4.2 -6.239 4.2 -11.159 L 4.2 -24.839 L 0 -24.839 Z " fill="#231f20"/>
<path transform="matrix(1,0,0,-1,335.6768,143.96579)" d="M 0 0 L 0 13.8 L -3.84 13.8 L -3.84 17.339 L 0 17.339 L 0 30.299 L 4.14 30.299 L 4.14 17.339 L 11.1 17.339 L 11.1 13.8 L 4.14 13.8 L 4.14 -.061 C 4.14 -3.36 5.279 -4.38 7.079 -4.38 C 8.76 -4.38 9.659 -3.66 10.439 -2.94 L 12.72 -5.58 C 11.64 -6.72 9.72 -8.04 6.659 -8.04 C 2.88 -8.04 0 -5.88 0 0 " fill="#231f20"/>
</g>
</g>
</g>
</svg>
